PathFileType	4	(X/Y/Z)	T1_P2_NoVision_Movement_2_0-733.trc
DataRate	CameraRate	NumFrames	NumMarkers	Units	OrigDataRate	OrigDataStartFrame	OrigNumFrames
60	60	5	27	m	60	549	733
Frame#	Time	RHip			RKnee			RAnkle			RBigToe			RSmallToe			RHeel			LHip			LKnee			LAnkle			LBigToe			LSmallToe			LHeel			Neck			Head			Nose			RShoulder			RElbow			RWrist			RThumb			RIndex			RPinky			LShoulder			LElbow			LWrist			LThumb			LIndex			LPinky		
		X1	Y1	Z1	X2	Y2	Z2	X3	Y3	Z3	X4	Y4	Z4	X5	Y5	Z5	X6	Y6	Z6	X7	Y7	Z7	X8	Y8	Z8	X9	Y9	Z9	X10	Y10	Z10	X11	Y11	Z11	X12	Y12	Z12	X13	Y13	Z13	X14	Y14	Z14	X15	Y15	Z15	X16	Y16	Z16	X17	Y17	Z17	X18	Y18	Z18	X19	Y19	Z19	X20	Y20	Z20	X21	Y21	Z21	X22	Y22	Z22	X23	Y23	Z23	X24	Y24	Z24	X25	Y25	Z25	X26	Y26	Z26	X27	Y27	Z27
550	9.166666666666666	466.9738904705848	3579.7550717728227	534.7487567145469	849.98552310228	3616.2689518609877	543.7996632390328	1244.4546337400914	3702.5247037684126	624.1034734138004	1329.4493538558352	3609.479614044529	608.1886723067178	1312.960528614817	3632.457933296528	554.4834553705085	1277.8566197988932	3701.4659002491644	638.3434990094073	471.12750796947046	3497.827064624734	735.7845006357632	870.2166320072454	3513.8845952362244	737.8405597521769	1236.8061475021552	3598.000137809161	732.3239250993895	1331.8271168508472	3563.0879644731995	685.4543432450909	1280.0311616064946	3478.0214934736646	716.6190041450951	1274.362744639764	3619.3040773217067	725.1880681534024	-121.49343310429211	3528.83961374731	648.4731535731866	-377.08237372134283	3479.329596807289	623.1190323161916	-235.63615414205225	3345.2405760279535	571.0677366109462	-34.16350953369719	3613.6174757959607	529.0747597434207	205.0893194374902	3706.2824366550767	458.1574367513201	413.2855558416569	3567.697513516112	403.5363856816794	508.4438714177191	3516.0571096792564	414.150933338415	520.7752314293833	3523.2760154416933	396.45050320763136	520.6530398153898	3532.649046857661	380.4476110164698	-19.935985015181874	3490.7087146613208	837.393441909154	245.49756035691996	3451.104281424028	850.7700590632406	487.8820827139081	3431.2413374150374	851.4459341662663	588.8607350592	3426.158649600587	817.6592071276727	586.7995974617928	3336.8187985795353	800.4969028036727	601.7791917475104	3387.90794873969	883.2473041168525
551	9.183333333333334	467.63230121495064	3584.7355837974615	535.9434867791679	848.0702406958549	3613.746262703462	542.1963756471866	1243.7888973911654	3702.4970729916777	624.3827086433344	1330.2631139744278	3611.1607987171074	608.4660546280345	1314.2808723780345	3633.865969262119	556.0114266354011	1277.3728240980215	3704.0124354186873	640.7268484590925	470.9288035981784	3497.949764242721	735.7891195830427	869.923625124525	3516.6741670786146	738.5407172377339	1236.4414293639431	3597.805672492032	732.1549731969576	1331.7903381181357	3562.9607327019266	685.3665360708313	1280.4176386076194	3477.097704912794	715.4831648775327	1274.6288749861055	3618.9071507777367	724.8978852249057	-121.96829245088959	3528.664157463632	648.5276949934765	-376.4725008869683	3477.6437675927737	621.5555354827978	-235.14190741764548	3345.9020594358094	571.4094059996313	-33.78702114647514	3617.6314825463605	530.0919551352356	205.12488328658532	3707.2182872977887	458.5622989082972	414.2630530977778	3574.6107993854857	405.0189536779443	508.5825604948127	3513.9020245488064	413.9520536539171	520.6809089970986	3522.5928383376117	396.28954817606444	521.0244362772315	3532.7404521883514	379.2572496484453	-18.28361036944297	3493.176704896982	838.0054508369233	247.13594215554983	3450.0567230861134	850.0990032959635	487.64285784517216	3430.3479769183273	850.5449734447495	589.1749241764937	3426.230318793195	817.5914016188497	588.1696330430977	3340.213813041213	801.7316032705155	601.7934569397067	3387.7943780555015	882.7123872198381
552	9.2	468.0576199211289	3587.162950901741	536.5572757729248	849.1637810111183	3614.716710691873	543.4059395357755	1243.3376568432218	3704.0379252942694	625.0880213334044	1330.2199051133027	3611.900164397716	608.641053364752	1313.8472185247583	3632.7857277520366	555.1589895238927	1278.4630822466183	3712.3140987175593	644.7068991010528	470.94657664948824	3498.1028240518617	735.8274265295338	869.1732290543162	3513.5229484122574	737.5489277415371	1237.7769362215247	3598.303551093594	732.1154333024966	1331.7578925843395	3562.8002187288607	685.2916649019952	1281.869846503605	3476.0688879768145	714.1266712688172	1274.6878614560283	3618.9468445725997	724.8825783095261	-122.091231931812	3528.6303527050222	648.5900924216625	-376.3925792527472	3477.361422204749	621.2952643241531	-234.1480992943039	3346.7957737480583	571.8266127604949	-32.85649856122343	3622.2143865279777	531.3122886029371	205.4452649325863	3708.207387519647	459.10126925371304	415.4427683859798	3579.604845588752	406.07120837798885	509.21776684042834	3508.7080006845085	413.10263287172467	519.935843195953	3519.9534257047335	395.31706857382153	522.2309055418186	3531.319406711911	378.1013638395958	-16.591740049096096	3495.046789023588	838.6457522850641	247.96417234639867	3448.239776341883	848.9233138336814	487.97920955157775	3431.8392632847845	851.9698257619625	589.8427477618936	3426.5868314575655	817.7586398761105	589.646879298731	3344.10909589163	803.1537583929177	601.7403466473489	3387.3521296515414	882.4228338150416
553	9.216666666666669	468.43049585430333	3588.7579309676094	537.1610905863351	852.7495486060159	3617.4621476326356	546.0428305847695	1244.2864578429933	3706.8007805088414	626.0389663596242	1330.182701516909	3613.2476887086414	609.0528202176174	1312.9312253305602	3631.605420226433	553.256496248262	1280.804917280106	3721.5234882306668	648.210171014326	471.162950940211	3497.8264570052393	735.7527082273529	868.5891319756604	3506.999307673222	735.6657740487316	1240.5521109347028	3599.633758010766	732.531158447646	1331.7852875614399	3562.796165888325	685.3132806778178	1283.9979565191736	3476.21114117266	714.0371270852559	1274.6406602897025	3619.0946786605036	725.1510056851986	-122.03783027567962	3528.7017386437064	648.6457305647353	-376.4941285629536	3477.5680856891263	621.4871391984562	-233.25836592498356	3347.5534920777495	572.1869590286619	-31.922510174597004	3626.255897964984	532.4059547305939	206.05870178374036	3708.0314160578077	459.0693629201041	416.68926076271777	3580.4852709538704	405.899249079993	510.51718065467617	3501.5261960124167	410.7483379916348	520.0333693266168	3515.9016254904072	393.38827929435683	524.2121535810031	3528.701010383361	376.87506390418736	-15.104787115761395	3494.5363185330925	838.6356609503546	247.6517600270535	3446.559791133345	847.8142218368353	488.51305683853843	3434.0029988186707	854.0538634061139	590.5466743148004	3426.9903412306526	817.978175598836	591.0593929892743	3348.0450042911853	804.5673073036259	601.3414280108897	3385.9026250486577	881.1887262946946
554	9.233333333333333	468.77245465527506	3592.7900406091712	538.6142020546918	857.0035728037691	3620.4666107666353	548.529507248988	1246.5723995909527	3710.228362966295	626.9521427132743	1331.0647846755376	3615.3282902240308	609.5878377874583	1312.124619606561	3631.7844489385766	551.6965233548461	1283.0131162771613	3726.948688805549	650.248047185622	471.6302463140171	3496.3048196972804	735.327247838478	868.6621702944152	3501.6684107695974	734.2163566467328	1242.6509509159625	3600.951147287879	733.3405736804898	1331.8368282848505	3562.8645483884557	685.4033412867686	1285.652823367545	3477.620980027277	715.5271129674168	1274.5436093689573	3619.0493196572675	725.7515493460979	-121.94901252868928	3528.909113764155	648.7757017800276	-376.58404005214027	3477.7654385268042	621.6531033555257	-233.23645668734417	3347.6239900675555	572.2497116228808	-31.43497926150134	3628.2736828976927	532.938262329541	206.73918685878402	3707.19360378346	458.6922661720022	417.5766493079255	3577.467762695284	403.9683899244311	512.5435271778127	3494.8349447177284	406.51401938098945	522.1924728981596	3512.512614026587	391.12106624600904	526.2982435054469	3526.1676551538885	375.77928248935905	-14.377438364780108	3494.1195572190745	838.5888739039026	246.8418550018874	3445.65036458962	847.1844784531527	488.54220470158555	3433.9798603662225	854.0152392192825	590.9855912562125	3427.065637100758	817.9459666300315	592.024096390274	3350.9670353843885	805.549088662342	600.410998921832	3382.799325386885	878.0074477879689
